NotoSansTakri-Regular.ufo
<glyph name="northIndicFractionOneHalf" format="2">
  <advance width="437"/>
  <unicode hex="A831"/>
  <outline>
    <contour>
      <point x="278" y="0" type="line"/>
      <point x="359" y="0" type="line"/>
      <point x="359" y="622" type="line"/>
      <point x="278" y="622" type="line"/>
    </contour>
    <contour>
      <point x="78" y="0" type="line"/>
      <point x="159" y="0" type="line"/>
      <point x="159" y="622" type="line"/>
      <point x="78" y="622" type="line"/>
    </contour>
  </outline>
</glyph>
<glyph name="northIndicPlaceholderMark" format="2">
  <advance width="509"/>
  <unicode hex="A837"/>
  <outline>
    <contour>
      <point x="221" y="86" type="curve" smooth="yes"/>
      <point x="321" y="86"/>
      <point x="383" y="154"/>
      <point x="383" y="240" type="curve" smooth="yes"/>
      <point x="383" y="330"/>
      <point x="315" y="391"/>
      <point x="222" y="391" type="curve" smooth="yes"/>
      <point x="200" y="391"/>
      <point x="177" y="387"/>
      <point x="155" y="381" type="curve"/>
      <point x="150" y="315" type="line"/>
      <point x="221" y="356"/>
      <point x="328" y="430"/>
      <point x="407" y="492" type="curve" smooth="yes"/>
      <point x="499" y="565" type="line"/>
      <point x="453" y="623" type="line"/>
      <point x="147" y="386" type="line" smooth="yes"/>
      <point x="76" y="331"/>
      <point x="57" y="296"/>
      <point x="57" y="240" type="curve" smooth="yes"/>
      <point x="57" y="150"/>
      <point x="124" y="86"/>
    </contour>
    <contour>
      <point x="220" y="156" type="curve" smooth="yes"/>
      <point x="165" y="156"/>
      <point x="133" y="190"/>
      <point x="133" y="240" type="curve" smooth="yes"/>
      <point x="133" y="286"/>
      <point x="164" y="323"/>
      <point x="220" y="323" type="curve" smooth="yes"/>
      <point x="273" y="323"/>
      <point x="307" y="288"/>
      <point x="307" y="240" type="curve" smooth="yes"/>
      <point x="307" y="191"/>
      <point x="276" y="156"/>
    </contour>
  </outline>
</glyph>
<glyph name="northIndicQuantityMark" format="2">
  <advance width="337"/>
  <unicode hex="A839"/>
  <outline>
    <contour>
      <point x="-155" y="-162" type="curve"/>
      <point x="-157" y="-237" type="line"/>
      <point x="-145" y="-238"/>
      <point x="-119" y="-240"/>
      <point x="-100" y="-240" type="curve" smooth="yes"/>
      <point x="199" y="-240"/>
      <point x="257" y="-84"/>
      <point x="257" y="30" type="curve" smooth="yes"/>
      <point x="257" y="200"/>
      <point x="146" y="315"/>
      <point x="146" y="421" type="curve" smooth="yes"/>
      <point x="146" y="498"/>
      <point x="219" y="536"/>
      <point x="337" y="558" type="curve"/>
      <point x="313" y="633" type="line"/>
      <point x="161" y="602"/>
      <point x="65" y="538"/>
      <point x="65" y="421" type="curve" smooth="yes"/>
      <point x="65" y="284"/>
      <point x="176" y="181"/>
      <point x="176" y="29" type="curve" smooth="yes"/>
      <point x="176" y="-73"/>
      <point x="113" y="-165"/>
      <point x="-104" y="-165" type="curve" smooth="yes"/>
      <point x="-123" y="-165"/>
      <point x="-142" y="-164"/>
    </contour>
  </outline>
</glyph>
<glyph name="kha-takr" format="2">
  <advance width="574"/>
  <unicode hex="1168B"/>
  <anchor x="250" y="0" name="bottom"/>
  <anchor x="484" y="395" name="bottomright"/>
  <anchor x="260" y="684" name="top"/>
  <anchor x="462" y="648" name="topright"/>
  <outline>
    <contour>
      <point x="498" y="-20" type="curve"/>
      <point x="534" y="47" type="line"/>
      <point x="506" y="62"/>
      <point x="494" y="92"/>
      <point x="494" y="127" type="curve" smooth="yes"/>
      <point x="494" y="625" type="line"/>
      <point x="409" y="625" type="line"/>
      <point x="409" y="429" type="line"/>
      <point x="134" y="429" type="line"/>
      <point x="115" y="354" type="line"/>
      <point x="409" y="354" type="line"/>
      <point x="409" y="244" type="line"/>
      <point x="389" y="205"/>
      <point x="339" y="173"/>
      <point x="254" y="173" type="curve" smooth="yes"/>
      <point x="164" y="173"/>
      <point x="115" y="200"/>
      <point x="115" y="255" type="curve" smooth="yes"/>
      <point x="115" y="297"/>
      <point x="126" y="337"/>
      <point x="137" y="377" type="curve" smooth="yes"/>
      <point x="148" y="417"/>
      <point x="159" y="457"/>
      <point x="159" y="501" type="curve" smooth="yes"/>
      <point x="159" y="550"/>
      <point x="136" y="613"/>
      <point x="66" y="640" type="curve"/>
      <point x="36" y="567" type="line"/>
      <point x="60" y="551"/>
      <point x="74" y="529"/>
      <point x="74" y="492" type="curve" smooth="yes"/>
      <point x="74" y="451"/>
      <point x="64" y="405"/>
      <point x="51" y="365" type="curve" smooth="yes"/>
      <point x="37" y="322"/>
      <point x="30" y="289"/>
      <point x="30" y="251" type="curve" smooth="yes"/>
      <point x="30" y="144"/>
      <point x="124" y="98"/>
      <point x="252" y="98" type="curve" smooth="yes"/>
      <point x="325" y="98"/>
      <point x="384" y="116"/>
      <point x="424" y="152" type="curve"/>
      <point x="411" y="173" type="line"/>
      <point x="411" y="125" type="line" smooth="yes"/>
      <point x="411" y="53"/>
      <point x="434" y="7"/>
    </contour>
  </outline>
</glyph>
<glyph name="ga-takr" format="2">
  <advance width="575"/>
  <unicode hex="1168C"/>
  <anchor x="295" y="0" name="bottom"/>
  <anchor x="485" y="454.556" name="bottomright"/>
  <anchor x="285" y="684" name="top"/>
  <anchor x="410" y="648" name="topright"/>
  <outline>
    <contour>
      <point x="167" y="-12" type="curve" smooth="yes"/>
      <point x="251" y="-12"/>
      <point x="313" y="43"/>
      <point x="313" y="194" type="curve" smooth="yes"/>
      <point x="313" y="303"/>
      <point x="276" y="441"/>
      <point x="212" y="550" type="curve"/>
      <point x="410" y="550" type="line"/>
      <point x="410" y="0" type="line"/>
      <point x="495" y="0" type="line"/>
      <point x="495" y="550" type="line"/>
      <point x="535" y="550" type="line"/>
      <point x="535" y="625" type="line"/>
      <point x="57" y="625" type="line"/>
      <point x="57" y="550" type="line"/>
      <point x="123" y="550" type="line"/>
      <point x="167" y="485"/>
      <point x="197" y="415"/>
      <point x="214" y="348" type="curve"/>
      <point x="97" y="320"/>
      <point x="30" y="247"/>
      <point x="30" y="145" type="curve" smooth="yes"/>
      <point x="30" y="48"/>
      <point x="91" y="-12"/>
    </contour>
    <contour>
      <point x="169" y="63" type="curve" smooth="yes"/>
      <point x="134" y="63"/>
      <point x="110" y="97"/>
      <point x="110" y="149" type="curve" smooth="yes"/>
      <point x="110" y="210"/>
      <point x="152" y="255"/>
      <point x="228" y="276" type="curve"/>
      <point x="231" y="247"/>
      <point x="233" y="215"/>
      <point x="233" y="190" type="curve" smooth="yes"/>
      <point x="233" y="103"/>
      <point x="207" y="63"/>
    </contour>
  </outline>
</glyph>
<glyph name="nya-takr" format="2">
  <advance width="772"/>
  <unicode hex="11693"/>
  <anchor x="360" y="0" name="bottom"/>
  <anchor x="702" y="455" name="bottomright"/>
  <anchor x="375" y="684" name="top"/>
  <anchor x="600" y="648" name="topright"/>
  <outline>
    <contour>
      <point x="315" y="0" type="line"/>
      <point x="400" y="0" type="line"/>
      <point x="400" y="263" type="line" smooth="yes"/>
      <point x="400" y="360"/>
      <point x="349" y="432"/>
      <point x="231" y="432" type="curve" smooth="yes"/>
      <point x="226" y="432"/>
      <point x="221" y="432"/>
      <point x="216" y="431" type="curve"/>
      <point x="216" y="550" type="line"/>
      <point x="627" y="550" type="line"/>
      <point x="627" y="0" type="line"/>
      <point x="712" y="0" type="line"/>
      <point x="712" y="625" type="line"/>
      <point x="30" y="625" type="line"/>
      <point x="30" y="550" type="line"/>
      <point x="131" y="550" type="line"/>
      <point x="131" y="415" type="line"/>
      <point x="81" y="397"/>
      <point x="46" y="362"/>
      <point x="46" y="324" type="curve" smooth="yes"/>
      <point x="46" y="282"/>
      <point x="130" y="246"/>
      <point x="177" y="246" type="curve" smooth="yes"/>
      <point x="207" y="246"/>
      <point x="216" y="280"/>
      <point x="216" y="310" type="curve" smooth="yes"/>
      <point x="216" y="359" type="line"/>
      <point x="226" y="359" type="line" smooth="yes"/>
      <point x="265" y="359"/>
      <point x="315" y="340"/>
      <point x="315" y="260" type="curve" smooth="yes"/>
    </contour>
    <contour>
      <point x="508" y="253" type="curve" smooth="yes"/>
      <point x="543" y="253"/>
      <point x="573" y="281"/>
      <point x="573" y="318" type="curve" smooth="yes"/>
      <point x="573" y="353"/>
      <point x="543" y="383"/>
      <point x="508" y="383" type="curve" smooth="yes"/>
      <point x="472" y="383"/>
      <point x="443" y="353"/>
      <point x="443" y="318" type="curve" smooth="yes"/>
      <point x="443" y="281"/>
      <point x="472" y="253"/>
    </contour>
  </outline>
</glyph>
<glyph name="dda-takr" format="2">
  <advance width="461"/>
  <unicode hex="11696"/>
  <anchor x="210" y="0" name="bottom"/>
  <anchor x="371" y="465" name="bottomright"/>
  <anchor x="205" y="684" name="top"/>
  <anchor x="410" y="648" name="topright"/>
  <outline>
    <contour>
      <point x="192" y="-12" type="curve" smooth="yes"/>
      <point x="346" y="-12"/>
      <point x="421" y="76"/>
      <point x="421" y="185" type="curve" smooth="yes"/>
      <point x="421" y="277"/>
      <point x="360" y="338"/>
      <point x="274" y="363" type="curve"/>
      <point x="272" y="344" type="line"/>
      <point x="352" y="370"/>
      <point x="393" y="413"/>
      <point x="393" y="486" type="curve" smooth="yes"/>
      <point x="393" y="578"/>
      <point x="320" y="637"/>
      <point x="180" y="637" type="curve" smooth="yes"/>
      <point x="125" y="637"/>
      <point x="83" y="631"/>
      <point x="55" y="625" type="curve"/>
      <point x="62" y="554" type="line"/>
      <point x="92" y="559"/>
      <point x="131" y="562"/>
      <point x="175" y="562" type="curve" smooth="yes"/>
      <point x="259" y="562"/>
      <point x="308" y="534"/>
      <point x="308" y="485" type="curve" smooth="yes"/>
      <point x="308" y="401"/>
      <point x="203" y="390"/>
      <point x="150" y="390" type="curve" smooth="yes"/>
      <point x="130" y="390" type="line"/>
      <point x="130" y="315" type="line"/>
      <point x="149" y="315" type="line" smooth="yes"/>
      <point x="252" y="315"/>
      <point x="332" y="276"/>
      <point x="336" y="192" type="curve"/>
      <point x="289" y="213"/>
      <point x="228" y="223"/>
      <point x="186" y="223" type="curve" smooth="yes"/>
      <point x="103" y="223"/>
      <point x="40" y="172"/>
      <point x="40" y="103" type="curve" smooth="yes"/>
      <point x="40" y="32"/>
      <point x="94" y="-12"/>
    </contour>
    <contour>
      <point x="190" y="63" type="curve" smooth="yes"/>
      <point x="149" y="63"/>
      <point x="122" y="78"/>
      <point x="122" y="105" type="curve" smooth="yes"/>
      <point x="122" y="136"/>
      <point x="153" y="150"/>
      <point x="183" y="150" type="curve" smooth="yes"/>
      <point x="230" y="150"/>
      <point x="281" y="139"/>
      <point x="317" y="122" type="curve"/>
      <point x="293" y="86"/>
      <point x="247" y="63"/>
    </contour>
  </outline>
</glyph>
<glyph name="nna-takr" format="2">
  <advance width="651"/>
  <unicode hex="11698"/>
  <anchor x="290" y="0" name="bottom"/>
  <anchor x="591" y="455" name="bottomright"/>
  <anchor x="320" y="684" name="top"/>
  <anchor x="474" y="648" name="topright"/>
  <outline>
    <contour>
      <point x="246" y="-12" type="curve" smooth="yes"/>
      <point x="330" y="-12"/>
      <point x="419" y="24"/>
      <point x="488" y="98" type="curve"/>
      <point x="519" y="68"/>
      <point x="551" y="31"/>
      <point x="584" y="-12" type="curve"/>
      <point x="641" y="25" type="line"/>
      <point x="606" y="74"/>
      <point x="570" y="118"/>
      <point x="532" y="155" type="curve"/>
      <point x="577" y="228"/>
      <point x="607" y="325"/>
      <point x="607" y="448" type="curve" smooth="yes"/>
      <point x="607" y="562"/>
      <point x="554" y="637"/>
      <point x="443" y="637" type="curve" smooth="yes"/>
      <point x="394" y="637"/>
      <point x="351" y="615"/>
      <point x="323" y="582" type="curve"/>
      <point x="295" y="615"/>
      <point x="251" y="637"/>
      <point x="204" y="637" type="curve" smooth="yes"/>
      <point x="93" y="637"/>
      <point x="40" y="569"/>
      <point x="40" y="490" type="curve" smooth="yes"/>
      <point x="40" y="450"/>
      <point x="60" y="397"/>
      <point x="95" y="356" type="curve"/>
      <point x="163" y="394" type="line"/>
      <point x="139" y="421"/>
      <point x="125" y="455"/>
      <point x="125" y="482" type="curve" smooth="yes"/>
      <point x="125" y="540"/>
      <point x="156" y="564"/>
      <point x="202" y="564" type="curve" smooth="yes"/>
      <point x="253" y="564"/>
      <point x="286" y="524"/>
      <point x="286" y="478" type="curve" smooth="yes"/>
      <point x="286" y="448" type="line"/>
      <point x="361" y="448" type="line"/>
      <point x="361" y="478" type="line" smooth="yes"/>
      <point x="361" y="524"/>
      <point x="394" y="564"/>
      <point x="445" y="564" type="curve" smooth="yes"/>
      <point x="491" y="564"/>
      <point x="522" y="540"/>
      <point x="522" y="452" type="curve" smooth="yes"/>
      <point x="522" y="352"/>
      <point x="504" y="270"/>
      <point x="471" y="207" type="curve"/>
      <point x="405" y="257"/>
      <point x="332" y="285"/>
      <point x="254" y="285" type="curve" smooth="yes"/>
      <point x="134" y="285"/>
      <point x="56" y="215"/>
      <point x="56" y="128" type="curve" smooth="yes"/>
      <point x="56" y="43"/>
      <point x="135" y="-12"/>
    </contour>
    <contour>
      <point x="247" y="63" type="curve" smooth="yes"/>
      <point x="184" y="63"/>
      <point x="141" y="90"/>
      <point x="141" y="135" type="curve" smooth="yes"/>
      <point x="141" y="182"/>
      <point x="189" y="210"/>
      <point x="248" y="210" type="curve" smooth="yes"/>
      <point x="308" y="210"/>
      <point x="368" y="190"/>
      <point x="430" y="146" type="curve"/>
      <point x="383" y="92"/>
      <point x="319" y="63"/>
    </contour>
  </outline>
</glyph>
<glyph name="pa-takr" format="2">
  <advance width="574"/>
  <unicode hex="1169E"/>
  <anchor x="260" y="0" name="bottom"/>
  <anchor x="484" y="455" name="bottomright"/>
  <anchor x="270" y="684" name="top"/>
  <anchor x="462" y="648" name="topright"/>
  <outline>
    <contour>
      <point x="498" y="-20" type="curve"/>
      <point x="534" y="47" type="line"/>
      <point x="506" y="62"/>
      <point x="494" y="92"/>
      <point x="494" y="127" type="curve" smooth="yes"/>
      <point x="494" y="625" type="line"/>
      <point x="409" y="625" type="line"/>
      <point x="409" y="234" type="line"/>
      <point x="387" y="205"/>
      <point x="329" y="173"/>
      <point x="244" y="173" type="curve" smooth="yes"/>
      <point x="171" y="173"/>
      <point x="115" y="196"/>
      <point x="115" y="255" type="curve" smooth="yes"/>
      <point x="115" y="295"/>
      <point x="125" y="333"/>
      <point x="136" y="372" type="curve" smooth="yes"/>
      <point x="148" y="413"/>
      <point x="159" y="458"/>
      <point x="159" y="498" type="curve" smooth="yes"/>
      <point x="159" y="557"/>
      <point x="127" y="616"/>
      <point x="66" y="640" type="curve"/>
      <point x="36" y="567" type="line"/>
      <point x="60" y="551"/>
      <point x="74" y="520"/>
      <point x="74" y="484" type="curve" smooth="yes"/>
      <point x="74" y="452"/>
      <point x="66" y="412"/>
      <point x="53" y="369" type="curve" smooth="yes"/>
      <point x="42" y="332"/>
      <point x="30" y="289"/>
      <point x="30" y="251" type="curve" smooth="yes"/>
      <point x="30" y="155"/>
      <point x="102" y="98"/>
      <point x="242" y="98" type="curve" smooth="yes"/>
      <point x="306" y="98"/>
      <point x="370" y="115"/>
      <point x="409" y="140" type="curve"/>
      <point x="409" y="125" type="line" smooth="yes"/>
      <point x="409" y="53"/>
      <point x="434" y="7"/>
    </contour>
  </outline>
</glyph>
<glyph name="pha-takr" format="2">
  <advance width="470"/>
  <unicode hex="1169F"/>
  <anchor x="245" y="0" name="bottom"/>
  <anchor x="400" y="189" name="bottomright"/>
  <anchor x="240" y="684" name="top"/>
  <anchor x="370" y="648" name="topright"/>
  <outline>
    <contour>
      <point x="248" y="-12" type="curve" smooth="yes"/>
      <point x="385" y="-12"/>
      <point x="436" y="62"/>
      <point x="436" y="136" type="curve" smooth="yes"/>
      <point x="436" y="208"/>
      <point x="384" y="261"/>
      <point x="297" y="261" type="curve" smooth="yes"/>
      <point x="206" y="261"/>
      <point x="157" y="208"/>
      <point x="157" y="144" type="curve" smooth="yes"/>
      <point x="157" y="106"/>
      <point x="176" y="73"/>
      <point x="202" y="50" type="curve"/>
      <point x="204" y="58" type="line"/>
      <point x="153" y="72"/>
      <point x="124" y="126"/>
      <point x="124" y="194" type="curve" smooth="yes"/>
      <point x="124" y="265"/>
      <point x="155" y="303"/>
      <point x="216" y="354" type="curve" smooth="yes"/>
      <point x="269" y="399"/>
      <point x="306" y="439"/>
      <point x="306" y="504" type="curve" smooth="yes"/>
      <point x="306" y="589"/>
      <point x="233" y="625"/>
      <point x="148" y="625" type="curve" smooth="yes"/>
      <point x="61" y="625" type="line"/>
      <point x="61" y="550" type="line"/>
      <point x="137" y="550" type="line" smooth="yes"/>
      <point x="194" y="550"/>
      <point x="221" y="535"/>
      <point x="221" y="501" type="curve" smooth="yes"/>
      <point x="221" y="465"/>
      <point x="190" y="436"/>
      <point x="154" y="402" type="curve" smooth="yes"/>
      <point x="89" y="342"/>
      <point x="40" y="290"/>
      <point x="40" y="190" type="curve" smooth="yes"/>
      <point x="40" y="86"/>
      <point x="98" y="-12"/>
    </contour>
    <contour>
      <point x="293" y="57" type="curve"/>
      <point x="257" y="82"/>
      <point x="239" y="114"/>
      <point x="239" y="137" type="curve" smooth="yes"/>
      <point x="239" y="164"/>
      <point x="257" y="188"/>
      <point x="294" y="188" type="curve" smooth="yes"/>
      <point x="330" y="188"/>
      <point x="354" y="171"/>
      <point x="354" y="137" type="curve" smooth="yes"/>
      <point x="354" y="97"/>
      <point x="328" y="72"/>
    </contour>
  </outline>
</glyph>
<glyph name="ba-takr" format="2">
  <advance width="525"/>
  <unicode hex="116A0"/>
  <anchor x="245" y="0" name="bottom"/>
  <anchor x="435" y="345" name="bottomright"/>
  <anchor x="230" y="684" name="top"/>
  <anchor x="350" y="648" name="topright"/>
  <outline>
    <contour>
      <point x="449" y="-20" type="curve"/>
      <point x="485" y="47" type="line"/>
      <point x="457" y="62"/>
      <point x="445" y="92"/>
      <point x="445" y="127" type="curve" smooth="yes"/>
      <point x="445" y="427" type="line"/>
      <point x="360" y="427" type="line"/>
      <point x="360" y="305" type="line"/>
      <point x="338" y="272"/>
      <point x="292" y="242"/>
      <point x="230" y="242" type="curve" smooth="yes"/>
      <point x="165" y="242"/>
      <point x="131" y="277"/>
      <point x="131" y="336" type="curve" smooth="yes"/>
      <point x="131" y="369"/>
      <point x="137" y="403"/>
      <point x="143" y="433" type="curve" smooth="yes"/>
      <point x="148" y="457"/>
      <point x="152" y="478"/>
      <point x="152" y="501" type="curve" smooth="yes"/>
      <point x="152" y="550"/>
      <point x="130" y="613"/>
      <point x="60" y="640" type="curve"/>
      <point x="30" y="567" type="line"/>
      <point x="54" y="551"/>
      <point x="68" y="527"/>
      <point x="68" y="500" type="curve" smooth="yes"/>
      <point x="68" y="475"/>
      <point x="65" y="456"/>
      <point x="58" y="423" type="curve" smooth="yes"/>
      <point x="52" y="395"/>
      <point x="46" y="364"/>
      <point x="46" y="326" type="curve" smooth="yes"/>
      <point x="46" y="235"/>
      <point x="107" y="169"/>
      <point x="225" y="169" type="curve" smooth="yes"/>
      <point x="287" y="169"/>
      <point x="336" y="189"/>
      <point x="360" y="211" type="curve"/>
      <point x="360" y="125" type="line" smooth="yes"/>
      <point x="360" y="53"/>
      <point x="385" y="7"/>
    </contour>
  </outline>
</glyph>
<glyph name="ma-takr" format="2">
  <advance width="659"/>
  <unicode hex="116A2"/>
  <anchor x="360" y="0" name="bottom"/>
  <anchor x="569" y="455" name="bottomright"/>
  <anchor x="305" y="684" name="top"/>
  <anchor x="438" y="648" name="topright"/>
  <outline>
    <contour>
      <point x="583" y="-20" type="curve"/>
      <point x="619" y="47" type="line"/>
      <point x="591" y="62"/>
      <point x="579" y="85"/>
      <point x="579" y="127" type="curve" smooth="yes"/>
      <point x="579" y="437" type="line" smooth="yes"/>
      <point x="579" y="573"/>
      <point x="498" y="637"/>
      <point x="395" y="637" type="curve" smooth="yes"/>
      <point x="293" y="637"/>
      <point x="219" y="576"/>
      <point x="157" y="492" type="curve"/>
      <point x="184" y="491" type="line"/>
      <point x="150" y="543"/>
      <point x="107" y="597"/>
      <point x="54" y="640" type="curve"/>
      <point x="5" y="582" type="line"/>
      <point x="50" y="541"/>
      <point x="93" y="489"/>
      <point x="124" y="444" type="curve"/>
      <point x="74" y="359"/>
      <point x="45" y="262"/>
      <point x="45" y="182" type="curve" smooth="yes"/>
      <point x="45" y="54"/>
      <point x="85" y="-12"/>
      <point x="165" y="-12" type="curve" smooth="yes"/>
      <point x="241" y="-12"/>
      <point x="288" y="49"/>
      <point x="288" y="192" type="curve" smooth="yes"/>
      <point x="288" y="272"/>
      <point x="259" y="362"/>
      <point x="215" y="442" type="curve"/>
      <point x="262" y="511"/>
      <point x="324" y="561"/>
      <point x="392" y="561" type="curve" smooth="yes"/>
      <point x="454" y="561"/>
      <point x="494" y="522"/>
      <point x="494" y="428" type="curve" smooth="yes"/>
      <point x="494" y="125" type="line" smooth="yes"/>
      <point x="494" y="53"/>
      <point x="519" y="7"/>
    </contour>
    <contour>
      <point x="166" y="63" type="curve" smooth="yes"/>
      <point x="139" y="63"/>
      <point x="125" y="108"/>
      <point x="125" y="182" type="curve" smooth="yes"/>
      <point x="125" y="250"/>
      <point x="146" y="326"/>
      <point x="179" y="394" type="curve"/>
      <point x="159" y="394" type="line"/>
      <point x="192" y="326"/>
      <point x="208" y="253"/>
      <point x="208" y="190" type="curve" smooth="yes"/>
      <point x="208" y="110"/>
      <point x="193" y="63"/>
    </contour>
  </outline>
</glyph>
<glyph name="rra-takr" format="2">
  <advance width="510"/>
  <unicode hex="116AA"/>
  <anchor x="275" y="-130" name="bottom"/>
  <anchor x="395" y="455" name="bottomright"/>
  <anchor x="250" y="684" name="top"/>
  <anchor x="430" y="648" name="topright"/>
  <outline>
    <contour>
      <point x="151" y="-155" type="curve"/>
      <point x="227" y="-155" type="line"/>
      <point x="231" y="-124"/>
      <point x="234" y="-90"/>
      <point x="234" y="-64" type="curve" smooth="yes"/>
      <point x="234" y="-45"/>
      <point x="232" y="-27"/>
      <point x="229" y="-10" type="curve"/>
      <point x="246" y="-9"/>
      <point x="261" y="-7"/>
      <point x="276" y="-4" type="curve"/>
      <point x="277" y="-86"/>
      <point x="313" y="-149"/>
      <point x="404" y="-149" type="curve" smooth="yes"/>
      <point x="446" y="-149"/>
      <point x="468" y="-141"/>
      <point x="490" y="-129" type="curve"/>
      <point x="464" y="-66" type="line"/>
      <point x="447" y="-74"/>
      <point x="428" y="-79"/>
      <point x="408" y="-79" type="curve" smooth="yes"/>
      <point x="369" y="-79"/>
      <point x="351" y="-55"/>
      <point x="351" y="5" type="curve" smooth="yes"/>
      <point x="351" y="25" type="line"/>
      <point x="413" y="62"/>
      <point x="441" y="122"/>
      <point x="441" y="184" type="curve" smooth="yes"/>
      <point x="441" y="254"/>
      <point x="402" y="309"/>
      <point x="341" y="341" type="curve"/>
      <point x="386" y="369"/>
      <point x="416" y="412"/>
      <point x="416" y="480" type="curve" smooth="yes"/>
      <point x="416" y="575"/>
      <point x="331" y="637"/>
      <point x="195" y="637" type="curve" smooth="yes"/>
      <point x="181" y="637"/>
      <point x="139" y="636"/>
      <point x="93" y="630" type="curve"/>
      <point x="100" y="554" type="line"/>
      <point x="123" y="558"/>
      <point x="150" y="562"/>
      <point x="180" y="562" type="curve" smooth="yes"/>
      <point x="266" y="562"/>
      <point x="331" y="537"/>
      <point x="331" y="476" type="curve" smooth="yes"/>
      <point x="331" y="402"/>
      <point x="276" y="373"/>
      <point x="190" y="373" type="curve" smooth="yes"/>
      <point x="143" y="373" type="line"/>
      <point x="143" y="298" type="line"/>
      <point x="205" y="298" type="line" smooth="yes"/>
      <point x="310" y="298"/>
      <point x="356" y="250"/>
      <point x="356" y="185" type="curve" smooth="yes"/>
      <point x="356" y="109"/>
      <point x="299" y="64"/>
      <point x="204" y="63" type="curve"/>
      <point x="180" y="104"/>
      <point x="142" y="129"/>
      <point x="97" y="129" type="curve" smooth="yes"/>
      <point x="57" y="129"/>
      <point x="30" y="103"/>
      <point x="30" y="67" type="curve" smooth="yes"/>
      <point x="30" y="13"/>
      <point x="78" y="-12"/>
      <point x="155" y="-12" type="curve"/>
      <point x="158" y="-29"/>
      <point x="159" y="-47"/>
      <point x="159" y="-65" type="curve" smooth="yes"/>
      <point x="159" y="-99"/>
      <point x="155" y="-133"/>
    </contour>
  </outline>
</glyph>
<glyph name="auMatra-takr" format="2">
  <unicode hex="116B5"/>
  <anchor x="0" y="684" name="_top"/>
  <anchor x="0" y="975" name="top"/>
  <outline>
    <contour>
      <point x="-236" y="824" type="curve"/>
      <point x="-172" y="824" type="line"/>
      <point x="-167" y="859"/>
      <point x="-137" y="885"/>
      <point x="-101" y="885" type="curve" smooth="yes"/>
      <point x="-68" y="885"/>
      <point x="-34" y="863"/>
      <point x="-26" y="832" type="curve"/>
      <point x="30" y="832" type="line"/>
      <point x="38" y="863"/>
      <point x="72" y="885"/>
      <point x="105" y="885" type="curve" smooth="yes"/>
      <point x="141" y="885"/>
      <point x="171" y="859"/>
      <point x="176" y="824" type="curve"/>
      <point x="240" y="824" type="line"/>
      <point x="240" y="894"/>
      <point x="183" y="950"/>
      <point x="108" y="950" type="curve" smooth="yes"/>
      <point x="64" y="950"/>
      <point x="26" y="930"/>
      <point x="2" y="900" type="curve"/>
      <point x="-22" y="930"/>
      <point x="-60" y="950"/>
      <point x="-104" y="950" type="curve" smooth="yes"/>
      <point x="-179" y="950"/>
      <point x="-236" y="894"/>
    </contour>
    <contour>
      <point x="-236" y="684" type="curve"/>
      <point x="-172" y="684" type="line"/>
      <point x="-167" y="719"/>
      <point x="-137" y="745"/>
      <point x="-101" y="745" type="curve" smooth="yes"/>
      <point x="-68" y="745"/>
      <point x="-34" y="723"/>
      <point x="-26" y="692" type="curve"/>
      <point x="30" y="692" type="line"/>
      <point x="38" y="723"/>
      <point x="72" y="745"/>
      <point x="105" y="745" type="curve" smooth="yes"/>
      <point x="141" y="745"/>
      <point x="171" y="719"/>
      <point x="176" y="684" type="curve"/>
      <point x="240" y="684" type="line"/>
      <point x="240" y="754"/>
      <point x="183" y="810"/>
      <point x="108" y="810" type="curve" smooth="yes"/>
      <point x="64" y="810"/>
      <point x="26" y="790"/>
      <point x="2" y="760" type="curve"/>
      <point x="-22" y="790"/>
      <point x="-60" y="810"/>
      <point x="-104" y="810" type="curve" smooth="yes"/>
      <point x="-179" y="810"/>
      <point x="-236" y="754"/>
    </contour>
  </outline>
</glyph>
<glyph name="nukta-takr" format="2">
  <unicode hex="116B7"/>
  <anchor x="0" y="0" name="_bottom"/>
  <anchor x="-2" y="-207" name="bottom"/>
  <outline>
    <contour>
      <point x="0" y="-210" type="curve" smooth="yes"/>
      <point x="35" y="-210"/>
      <point x="65" y="-182"/>
      <point x="65" y="-145" type="curve" smooth="yes"/>
      <point x="65" y="-110"/>
      <point x="35" y="-80"/>
      <point x="0" y="-80" type="curve" smooth="yes"/>
      <point x="-36" y="-80"/>
      <point x="-65" y="-110"/>
      <point x="-65" y="-145" type="curve" smooth="yes"/>
      <point x="-65" y="-182"/>
      <point x="-36" y="-210"/>
    </contour>
  </outline>
</glyph>
<glyph name="archaicKha-takr" format="2">
  <advance width="705"/>
  <unicode hex="116B8"/>
  <anchor x="363" y="0" name="bottom"/>
  <anchor x="615" y="455" name="bottomright"/>
  <anchor x="363" y="684" name="top"/>
  <anchor x="555" y="648" name="topright"/>
  <outline>
    <contour>
      <point x="539" y="0" type="line"/>
      <point x="624" y="0" type="line"/>
      <point x="624" y="550" type="line"/>
      <point x="665" y="550" type="line"/>
      <point x="665" y="625" type="line"/>
      <point x="20" y="625" type="line"/>
      <point x="20" y="550" type="line"/>
      <point x="259" y="550" type="line"/>
      <point x="224" y="571" type="line"/>
      <point x="224" y="250" type="line" smooth="yes"/>
      <point x="224" y="170"/>
      <point x="294" y="97"/>
      <point x="387" y="97" type="curve" smooth="yes"/>
      <point x="446" y="97"/>
      <point x="500" y="116"/>
      <point x="539" y="154" type="curve"/>
    </contour>
    <contour>
      <point x="408" y="172" type="curve" smooth="yes"/>
      <point x="347" y="172"/>
      <point x="309" y="208"/>
      <point x="309" y="254" type="curve" smooth="yes"/>
      <point x="309" y="564" type="line"/>
      <point x="281" y="550" type="line"/>
      <point x="539" y="550" type="line"/>
      <point x="539" y="281" type="line"/>
      <point x="531" y="222"/>
      <point x="471" y="172"/>
    </contour>
    <contour>
      <point x="146" y="570" type="line"/>
      <point x="61" y="570" type="line"/>
      <point x="61" y="0" type="line"/>
      <point x="146" y="0" type="line"/>
    </contour>
  </outline>
</glyph>
<glyph name="digitZero-takr" format="2">
  <advance width="327"/>
  <unicode hex="116C0"/>
  <outline>
    <contour>
      <point x="163" y="233" type="curve" smooth="yes"/>
      <point x="209" y="233"/>
      <point x="247" y="269"/>
      <point x="247" y="316" type="curve" smooth="yes"/>
      <point x="247" y="362"/>
      <point x="209" y="400"/>
      <point x="163" y="400" type="curve" smooth="yes"/>
      <point x="118" y="400"/>
      <point x="80" y="362"/>
      <point x="80" y="316" type="curve" smooth="yes"/>
      <point x="80" y="269"/>
      <point x="118" y="233"/>
    </contour>
  </outline>
</glyph>
<glyph name="digitNine-takr" format="2">
  <advance width="473"/>
  <unicode hex="116C9"/>
  <outline>
    <contour>
      <point x="272" y="-12" type="curve" smooth="yes"/>
      <point x="389" y="-12"/>
      <point x="433" y="73"/>
      <point x="433" y="145" type="curve" smooth="yes"/>
      <point x="433" y="217"/>
      <point x="390" y="279"/>
      <point x="297" y="279" type="curve" smooth="yes"/>
      <point x="217" y="279"/>
      <point x="167" y="227"/>
      <point x="167" y="155" type="curve" smooth="yes"/>
      <point x="167" y="122"/>
      <point x="175" y="97"/>
      <point x="196" y="66" type="curve"/>
      <point x="199" y="76" type="line"/>
      <point x="158" y="100"/>
      <point x="144" y="154"/>
      <point x="144" y="231" type="curve" smooth="yes"/>
      <point x="144" y="354"/>
      <point x="192" y="482"/>
      <point x="360" y="524" type="curve"/>
      <point x="340" y="587" type="line"/>
      <point x="153" y="558"/>
      <point x="60" y="379"/>
      <point x="60" y="237" type="curve" smooth="yes"/>
      <point x="60" y="101"/>
      <point x="120" y="-12"/>
    </contour>
    <contour>
      <point x="295" y="56" type="curve"/>
      <point x="257" y="78"/>
      <point x="242" y="104"/>
      <point x="242" y="143" type="curve" smooth="yes"/>
      <point x="242" y="180"/>
      <point x="264" y="209"/>
      <point x="301" y="209" type="curve" smooth="yes"/>
      <point x="329" y="209"/>
      <point x="357" y="192"/>
      <point x="357" y="138" type="curve" smooth="yes"/>
      <point x="357" y="101"/>
      <point x="337" y="66"/>
    </contour>
  </outline>
</glyph>
<glyph name="I_anusvara" format="2">
  <advance width="304"/>
  <outline>
    <contour>
      <point x="80" y="-120" type="line"/>
      <point x="165" y="-120" type="line"/>
      <point x="165" y="638" type="line" smooth="yes"/>
      <point x="165" y="760"/>
      <point x="224" y="805"/>
      <point x="304" y="805" type="curve" smooth="yes"/>
      <point x="406" y="805"/>
      <point x="451" y="734"/>
      <point x="451" y="655" type="curve" smooth="yes"/>
      <point x="451" y="567" type="line"/>
      <point x="536" y="567" type="line"/>
      <point x="536" y="660" type="line" smooth="yes"/>
      <point x="536" y="762"/>
      <point x="464" y="880"/>
      <point x="301" y="880" type="curve" smooth="yes"/>
      <point x="165" y="880"/>
      <point x="80" y="801"/>
      <point x="80" y="644" type="curve" smooth="yes"/>
    </contour>
    <contour>
      <point x="645" y="714" type="curve" smooth="yes"/>
      <point x="680" y="714"/>
      <point x="710" y="742"/>
      <point x="710" y="779" type="curve" smooth="yes"/>
      <point x="710" y="814"/>
      <point x="680" y="844"/>
      <point x="645" y="844" type="curve" smooth="yes"/>
      <point x="609" y="844"/>
      <point x="580" y="814"/>
      <point x="580" y="779" type="curve" smooth="yes"/>
      <point x="580" y="742"/>
      <point x="609" y="714"/>
    </contour>
  </outline>
</glyph>
<glyph name="Tra" format="2">
  <advance width="510"/>
  <anchor x="255" y="-130" name="bottom"/>
  <anchor x="400" y="455" name="bottomright"/>
  <anchor x="250" y="684" name="top"/>
  <anchor x="290" y="684" name="topright"/>
  <outline>
    <contour>
      <point x="165" y="-12" type="curve" smooth="yes"/>
      <point x="374" y="-12"/>
      <point x="441" y="80"/>
      <point x="441" y="184" type="curve" smooth="yes"/>
      <point x="441" y="254"/>
      <point x="402" y="309"/>
      <point x="341" y="341" type="curve"/>
      <point x="386" y="369"/>
      <point x="416" y="412"/>
      <point x="416" y="480" type="curve" smooth="yes"/>
      <point x="416" y="575"/>
      <point x="331" y="637"/>
      <point x="195" y="637" type="curve" smooth="yes"/>
      <point x="181" y="637"/>
      <point x="139" y="636"/>
      <point x="93" y="630" type="curve"/>
      <point x="100" y="554" type="line"/>
      <point x="123" y="558"/>
      <point x="150" y="562"/>
      <point x="180" y="562" type="curve" smooth="yes"/>
      <point x="266" y="562"/>
      <point x="331" y="537"/>
      <point x="331" y="476" type="curve" smooth="yes"/>
      <point x="331" y="402"/>
      <point x="276" y="373"/>
      <point x="190" y="373" type="curve" smooth="yes"/>
      <point x="143" y="373" type="line"/>
      <point x="143" y="298" type="line"/>
      <point x="205" y="298" type="line" smooth="yes"/>
      <point x="310" y="298"/>
      <point x="356" y="250"/>
      <point x="356" y="185" type="curve" smooth="yes"/>
      <point x="356" y="129"/>
      <point x="322" y="79"/>
      <point x="248" y="68" type="curve"/>
      <point x="198" y="103"/>
      <point x="150" y="129"/>
      <point x="97" y="129" type="curve" smooth="yes"/>
      <point x="57" y="129"/>
      <point x="30" y="103"/>
      <point x="30" y="67" type="curve" smooth="yes"/>
      <point x="30" y="10"/>
      <point x="78" y="-12"/>
    </contour>
    <contour>
      <point x="410" y="-208" type="curve"/>
      <point x="466" y="-168" type="line"/>
      <point x="422" y="-72"/>
      <point x="338" y="17"/>
      <point x="252" y="65" type="curve"/>
      <point x="212" y="3" type="line"/>
      <point x="307" y="-51"/>
      <point x="363" y="-129"/>
    </contour>
  </outline>
</glyph>
